<?xml version="1.0" standalone="no"?>
<!DOCTYPE svg PUBLIC "-//W3C//DTD SVG 20010904//EN"
 "http://www.w3.org/TR/2001/REC-SVG-20010904/DTD/svg10.dtd">
<svg version="1.0" xmlns="http://www.w3.org/2000/svg"
 width="256.000000pt" height="256.000000pt" viewBox="0 0 256.000000 256.000000"
 preserveAspectRatio="xMidYMid meet">
<metadata>
Created by potrace 1.11, written by Peter Selinger 2001-2013
</metadata>
<g transform="translate(0.000000,256.000000) scale(0.100000,-0.100000)"
fill="#000000" stroke="none">
<path d="M50 2547 c-13 -7 -31 -24 -39 -38 -13 -24 -13 -29 3 -53 21 -32 53
-46 108 -46 l41 0 -6 -727 c-4 -401 -7 -842 -7 -980 l0 -253 -50 0 c-41 0 -56
-5 -75 -25 -14 -13 -25 -36 -25 -50 0 -14 11 -37 25 -50 l24 -25 731 0 730 0
0 -52 c0 -29 5 -71 11 -93 15 -53 91 -129 144 -144 53 -15 703 -15 742 0 56
21 102 61 128 112 l25 51 0 657 0 657 -28 53 c-39 75 -100 112 -193 117 l-69
4 0 374 0 374 50 0 c41 0 56 5 75 25 32 31 32 69 0 100 l-24 25 -1148 0 c-898
0 -1153 -3 -1173 -13z m1160 -212 l0 -75 -455 0 -455 0 0 75 0 75 455 0 455 0
0 -75z m0 -300 l0 -75 -455 0 -455 0 0 75 0 75 455 0 455 0 0 -75z m0 -300 l0
-75 -455 0 -455 0 0 75 0 75 455 0 455 0 0 -75z m0 -300 l0 -75 -449 0 -448 0
-7 53 c-3 28 -6 62 -6 75 l0 22 455 0 455 0 0 -75z m1153 64 c14 -6 30 -22 36
-36 8 -16 11 -185 11 -548 0 -363 -3 -532 -11 -548 -20 -44 -42 -47 -375 -47
l-315 0 -24 25 -25 24 0 546 0 546 25 24 24 25 315 0 c210 0 323 -4 339 -11z
m-853 -669 l0 -380 -600 0 -600 0 0 380 0 380 600 0 600 0 0 -380z"/>
<path d="M1995 1281 c-54 -33 -185 -178 -185 -205 0 -38 10 -56 41 -72 41 -21
69 -10 129 51 l54 54 62 -59 c44 -42 70 -60 89 -60 37 0 75 41 75 81 0 28 -14
47 -98 131 -57 57 -106 98 -118 98 -10 0 -32 -8 -49 -19z"/>
<path d="M1835 815 c-43 -42 -34 -67 57 -163 95 -101 134 -127 169 -113 13 5
63 49 112 99 75 77 87 94 87 124 0 43 -34 78 -76 78 -23 0 -43 -13 -89 -60
l-59 -59 -62 59 c-70 68 -100 75 -139 35z"/>
</g>
</svg>
